HIERARCHY
ROOT Hips
{
  OFFSET 0.0 0.0 0.0
  CHANNELS 6 Xposition Yposition Zposition Zrotation Yrotation Xrotation
  JOINT LHipJoint
  {
    OFFSET 0.0 0.0 0.0
    CHANNELS 3 Zrotation Yrotation Xrotation
    JOINT LeftUpLeg
    {
      OFFSET 1.363059998 -1.794630051 0.839290023
      CHANNELS 3 Zrotation Yrotation Xrotation
      JOINT LeftLeg
      {
        OFFSET 2.448110104 -6.726130009 0.0
        CHANNELS 3 Zrotation Yrotation Xrotation
        JOINT LeftFoot
        {
          OFFSET 2.562200069 -7.039589882 0.0
          CHANNELS 3 Zrotation Yrotation Xrotation
          JOINT LeftToeBase
          {
            OFFSET 0.157639995 -0.433109999 2.322550058
            CHANNELS 3 Zrotation Yrotation Xrotation
            End Site
            {
              OFFSET 0.0 -0.0 1.189659953
            }
          }
        }
      }
    }
  }
  JOINT RHipJoint
  {
    OFFSET 0.0 0.0 0.0
    CHANNELS 3 Zrotation Yrotation Xrotation
    JOINT RightUpLeg
    {
      OFFSET -1.305520058 -1.794630051 0.839290023
      CHANNELS 3 Zrotation Yrotation Xrotation
      JOINT RightLeg
      {
        OFFSET -2.54253006 -6.985549927 0.0
        CHANNELS 3 Zrotation Yrotation Xrotation
        JOINT RightFoot
        {
          OFFSET -2.568259954 -7.056230068 0.0
          CHANNELS 3 Zrotation Yrotation Xrotation
          JOINT RightToeBase
          {
            OFFSET -0.164729998 -0.452589989 2.363149881
            CHANNELS 3 Zrotation Yrotation Xrotation
            End Site
            {
              OFFSET -0.0 -0.0 1.21081996
            }
          }
        }
      }
    }
  }
  JOINT LowerBack
  {
    OFFSET 0.0 0.0 0.0
    CHANNELS 3 Zrotation Yrotation Xrotation
    JOINT Spine
    {
      OFFSET 0.028270001 2.035589933 -0.193379998
      CHANNELS 3 Zrotation Yrotation Xrotation
      JOINT Spine1
      {
        OFFSET 0.05672 2.04885006 -0.042750001
        CHANNELS 3 Zrotation Yrotation Xrotation
        JOINT Neck
        {
          OFFSET 0.0 0.0 0.0
          CHANNELS 3 Zrotation Yrotation Xrotation
          JOINT Neck1
          {
            OFFSET -0.054170001 1.74624002 0.172020003
            CHANNELS 3 Zrotation Yrotation Xrotation
            JOINT Head
            {
              OFFSET 0.10407 1.761360049 -0.123970002
              CHANNELS 3 Zrotation Yrotation Xrotation
              End Site
              {
                OFFSET 0.0372 1.770439982 -0.062410001
              }
            }
          }
        }
        JOINT LeftShoulder
        {
          OFFSET 0.0 0.0 0.0
          CHANNELS 3 Zrotation Yrotation Xrotation
          JOINT LeftArm
          {
            OFFSET 3.362410069 1.200889945 -0.311210006
            CHANNELS 3 Zrotation Yrotation Xrotation
            JOINT LeftForeArm
            {
              OFFSET 4.982999802 -0.0 -0.0
              CHANNELS 3 Zrotation Yrotation Xrotation
              JOINT LeftHand
              {
                OFFSET 3.483560085 -0.0 -0.0
                CHANNELS 3 Zrotation Yrotation Xrotation
                JOINT LeftFingerBase
                {
                  OFFSET 0.0 0.0 0.0
                  CHANNELS 3 Zrotation Yrotation Xrotation
                  JOINT LeftHandIndex1
                  {
                    OFFSET 0.715260029 -0.0 -0.0
                    CHANNELS 3 Zrotation Yrotation Xrotation
                    End Site
                    {
                      OFFSET 0.576659977 -0.0 -0.0
                    }
                  }
                }
                JOINT LThumb
                {
                  OFFSET 0.0 0.0 0.0
                  CHANNELS 3 Zrotation Yrotation Xrotation
                  End Site
                  {
                    OFFSET 0.585470021 -0.0 0.585470021
                  }
                }
              }
            }
          }
        }
        JOINT RightShoulder
        {
          OFFSET 0.0 0.0 0.0
          CHANNELS 3 Zrotation Yrotation Xrotation
          JOINT RightArm
          {
            OFFSET -3.136600018 1.374050021 -0.404650003
            CHANNELS 3 Zrotation Yrotation Xrotation
            JOINT RightForeArm
            {
              OFFSET -5.241899967 -0.0 -0.0
              CHANNELS 3 Zrotation Yrotation Xrotation
              JOINT RightHand
              {
                OFFSET -3.444169998 -0.0 -0.0
                CHANNELS 3 Zrotation Yrotation Xrotation
                JOINT RightFingerBase
                {
                  OFFSET 0.0 0.0 0.0
                  CHANNELS 3 Zrotation Yrotation Xrotation
                  JOINT RightHandIndex1
                  {
                    OFFSET -0.622529984 -0.0 -0.0
                    CHANNELS 3 Zrotation Yrotation Xrotation
                    End Site
                    {
                      OFFSET -0.501900017 -0.0 -0.0
                    }
                  }
                }
                JOINT RThumb
                {
                  OFFSET 0.0 0.0 0.0
                  CHANNELS 3 Zrotation Yrotation Xrotation
                  End Site
                  {
                    OFFSET -0.509559989 -0.0 0.509559989
                  }
                }
              }
            }
          }
        }
      }
    }
  }
}
MOTION
Frames: 5
Frame Time: 0.0083333
0.0 21.794099808 0.0 -1.545400023 -4.203299999 1.199099898 0.0 -0.0 0.0 -12.996502876 4.846699715 -0.641200185 2.601199865 10.019600868 29.040203094 3.121899843 0.645299792 33.339897156 0.169800028 -2.654500484 -7.318301201 0.0 -0.0 0.0 17.086101532 1.335800409 -2.970700264 -4.270100117 -12.511401176 37.565792084 -0.900099754 -17.624797821 19.619897842 -0.28339994 -3.423499584 9.460098267 -0.494399935 0.768899977 10.877900124 3.103600502 1.135200143 0.701600194 3.360600471 0.607600033 -5.446299076 -5.526600361 -2.936199665 -11.776700974 5.401100159 -3.553100586 6.189501286 2.307899714 -1.60049963 3.956999779 0.0 -0.0 0.0 -85.930007935 26.764604568 24.183898926 26.594400406 -37.789707184 -9.249501228 0.0 0.0 -15.632100105 25.758802414 -7.067500591 -3.397600412 -7.125 0.0 0.0 -0.749199986 22.141994476 0.411600113 0.0 -0.0 0.0 82.621292114 -20.020095825 18.443098068 -13.2059021 21.588201523 -2.528501034 0.0 -0.0 0.720600009 -18.714200974 -23.101701736 7.571199894 7.125 -0.0 0.0 10.911897659 -53.895401001 -2.408298969 
-0.005900383 21.949100494 0.153297424 -2.297699928 -4.289600372 0.568099797 0.0 -0.0 0.0 -12.061101913 4.960200787 -0.792700052 2.752800226 10.283699036 29.900396347 3.297599554 0.584799767 34.300498962 0.116599992 -2.201899529 -6.06389904 0.0 -0.0 0.0 18.040502548 1.23810029 -2.882700205 -4.324400425 -12.57999897 37.815803528 -0.866699696 -18.147197723 19.604797363 -0.265900105 -3.317400217 9.163702011 0.145300001 0.819800198 11.815099716 3.411700249 1.317900181 0.695200026 3.290700674 0.688500106 -5.983500004 -5.597200394 -2.96530056 -11.467302322 5.045401096 -3.562599897 6.15760088 2.211999416 -1.630399942 3.891599894 0.0 -0.0 0.0 -86.522094727 27.13299942 22.301597595 24.500192642 -35.688796997 -7.996495247 0.0 0.0 -15.244501114 26.807601929 -6.680299759 -3.363999367 -7.125 0.0 0.0 0.0341 22.503700256 -0.018499995 0.0 -0.0 0.0 82.823989868 -20.089097977 14.456201553 -11.272996902 18.705499649 -1.862499118 0.0 -0.0 2.765700102 -18.81029892 -21.33190155 7.063500404 7.125 -0.0 0.0 10.117100716 -52.119701385 -1.788399935 
-0.00260067 22.095399857 0.312297821 -2.909300804 -4.224600315 0.064399987 0.0 -0.0 0.0 -11.320900917 4.944800377 -1.009300113 2.885999918 10.508099556 30.638299942 3.441300154 0.598100662 35.051094055 0.076000012 -1.7779001 -4.892199039 0.0 -0.0 0.0 18.748600006 0.937800109 -2.913199902 -4.323899746 -12.579399109 37.813907623 -0.826099932 -18.626699448 19.531600952 -0.283300042 -3.423399925 9.459699631 0.712799907 0.730699956 12.925097466 3.663300276 1.335600138 0.365200043 3.232700348 0.691100001 -6.952899456 -5.535900116 -2.867399931 -11.034098625 4.678598881 -3.440799236 6.544897556 2.101000786 -1.593899965 3.924900293 0.0 -0.0 0.0 -87.211303711 28.050800323 19.946897507 22.64749527 -33.701099396 -6.941700459 0.0 0.0 -14.204000473 27.578397751 -6.074699879 -3.163699389 -7.125 0.0 0.0 0.627799928 23.133497238 -0.33069998 0.0 -0.0 0.0 82.969589233 -20.665197372 9.517601013 -9.478898048 15.920399666 -1.328399777 0.0 -0.0 6.584199905 -19.068902969 -20.381202698 6.864602089 7.125 -0.0 0.0 9.522601128 -51.194908142 -1.464500308 
0.001999855 22.227600098 0.469497681 -3.043999672 -4.168999672 -0.362500101 0.0 -0.0 0.0 -11.145499229 4.802799225 -1.333299637 3.001300097 10.697198868 31.265304565 3.529099464 0.309900552 35.586093903 0.098000005 -2.018600225 -5.557100296 0.0 -0.0 0.0 18.898103714 0.635500252 -3.033200264 -4.274399757 -12.51680088 37.5858078 -0.777499616 -19.037900925 19.381998062 -0.251700044 -3.228400707 8.915301323 1.024999976 0.675800085 12.611300468 3.613100529 1.270100117 0.970399976 3.009599686 0.641899943 -6.120700359 -5.352100372 -2.785000086 -11.594698906 4.643700123 -3.330700159 6.683898926 2.0625 -1.529500127 4.049301147 0.0 -0.0 0.0 -87.587791443 27.384403229 17.161397934 20.969501495 -31.792703629 -6.033900738 0.0 0.0 -12.614899635 27.587203979 -5.033100128 -2.624600172 -7.125 0.0 0.0 0.679499924 24.305000305 -0.339599907 0.0 -0.0 0.0 83.467910767 -19.490497589 1.987998247 -7.836099625 13.286898613 -0.914099574 0.0 -0.0 12.057397842 -18.784502029 -20.153799057 6.683900833 7.125 -0.0 0.0 9.723299026 -50.915092468 -1.428597927 
0.003499985 22.328899384 0.623100281 -2.901099205 -4.274000645 -0.852000117 0.0 -0.0 0.0 -11.280599594 4.780799866 -1.589300036 3.086700201 10.83409977 31.722305298 3.514200687 -0.614300668 35.787200928 0.156499982 -2.549200058 -7.025999546 0.0 -0.0 0.0 18.75979805 0.396399945 -3.041700363 -4.194000244 -12.414199829 37.213596344 -0.766199887 -18.982198715 19.27740097 -0.263199985 -3.300699949 9.117199898 0.920599937 0.739400148 12.536301613 3.574300051 1.314700127 1.477700233 3.017300606 0.661400139 -5.545100689 -5.175901413 -2.809000492 -11.554402351 4.233599186 -3.339400291 6.163701534 1.908900023 -1.55189991 3.87349987 0.0 -0.0 0.0 -87.931121826 26.867609024 14.505199432 19.478401184 -30.008794785 -5.26800108 0.0 0.0 -11.233300209 27.575901031 -3.802899599 -1.983800292 -7.125 0.0 0.0 0.716100097 25.691202164 -0.334899932 0.0 -0.0 0.0 83.691108704 -18.618600845 -7.172001839 -6.404600143 10.935198784 -0.613699973 0.0 -0.0 19.274404526 -19.440099716 -19.706098557 6.786900997 7.125 -0.0 0.0 8.934200287 -50.56470871 -1.233699799 
